<svg width="512" height="512" viewBox="0 0 512 512" fill="none" xmlns="http://www.w3.org/2000/svg">
<path d="M17 21.5L0 41.9998C0 41.9998 0 41.9998 28.9126 42.3368H57.7888L55.3709 39.8464L51.4999 35.9998H32.9999C38.9999 35.9998 12.138 36.1463 11.9999 35.9998C11.8617 35.8534 32.5 11.3517 35.4063 7.49975C35.6826 7.13351 40.4493 14.1368 46.8048 21.901C63.533 42.3368 61.4999 39.8464 63.4999 42.3369L70.4999 42.3368L53.2294 21.0953C43.6961 9.59553 35.6826 0.146688 35.4063 0.00019455C35.0609 -0.0730521 17 21.5 17 21.5Z" fill="#FF0004" fill-opacity="0.8"/>
<path d="M17 21.5L0 41.9998C0 41.9998 0 41.9998 28.9126 42.3368H57.7888L55.3709 39.8464L51.4999 35.9998H32.9999C38.9999 35.9998 12.138 36.1463 11.9999 35.9998C11.8617 35.8534 32.5 11.3517 35.4063 7.49975C35.6826 7.13351 40.4493 14.1368 46.8048 21.901C63.533 42.3368 61.4999 39.8464 63.4999 42.3369L70.4999 42.3368L53.2294 21.0953C43.6961 9.59553 35.6826 0.146688 35.4063 0.00019455C35.0609 -0.0730521 17 21.5 17 21.5Z" fill="black" fill-opacity="0.2"/>
</svg>
